<?xml version="1.0" standalone="no"?>
<!DOCTYPE svg PUBLIC "-//W3C//DTD SVG 20010904//EN"
 "http://www.w3.org/TR/2001/REC-SVG-20010904/DTD/svg10.dtd">
<svg version="1.0" xmlns="http://www.w3.org/2000/svg"
 width="318.000000pt" height="159.000000pt" viewBox="0 0 318.000000 159.000000"
 preserveAspectRatio="xMidYMid meet">
<metadata>
Created by potrace 1.10, written by Peter Selinger 2001-2011
</metadata>
<g transform="translate(0.000000,159.000000) scale(0.100000,-0.100000)"
fill="#000000" stroke="none">
<path d="M1147 1553 c-14 -13 -6 -33 13 -33 13 0 20 7 20 20 0 19 -20 27 -33
13z"/>
<path d="M1055 1284 c-366 -305 -661 -406 -931 -318 -37 12 -57 13 -70 6 -15
-8 -9 -13 36 -26 108 -33 193 -40 299 -28 155 18 317 82 471 185 85 56 230
168 250 192 7 8 15 15 19 15 3 0 7 -42 8 -93 1 -50 11 -138 22 -194 l20 -102
-45 -68 c-121 -184 -184 -379 -184 -570 0 -114 13 -164 55 -208 90 -96 231
-40 279 110 43 135 32 329 -35 614 l-30 125 38 38 c59 61 96 80 154 80 105 -1
164 -75 183 -229 8 -67 13 -83 25 -81 12 2 18 21 23 66 10 90 72 212 108 212
13 0 48 -52 75 -115 14 -30 31 -55 38 -55 8 0 28 27 46 59 33 63 91 121 119
121 29 -1 57 -23 109 -85 114 -137 203 -195 314 -203 126 -9 263 60 390 196
61 65 139 182 139 209 0 28 -31 10 -51 -29 -62 -124 -191 -261 -296 -314 -52
-26 -68 -29 -148 -29 -74 0 -97 4 -133 23 -56 30 -122 91 -180 166 -30 39 -59
65 -88 78 -40 17 -46 18 -81 3 -46 -19 -97 -67 -114 -106 -15 -38 -22 -36 -38
6 -45 125 -142 126 -204 2 l-24 -48 -17 45 c-35 90 -97 135 -189 136 -63 0
-113 -22 -163 -71 -40 -40 -42 -40 -47 -17 -18 74 -39 262 -34 316 6 82 -4 81
-118 -14z m166 -541 c42 -188 52 -269 47 -395 -5 -137 -30 -217 -83 -266 -105
-97 -220 41 -201 243 9 94 43 235 76 318 29 71 122 239 128 232 2 -2 17 -61
33 -132z"/>
</g>
</svg>
