<?xml version="1.0" standalone="no"?>
<!DOCTYPE svg PUBLIC "-//W3C//DTD SVG 20010904//EN"
 "http://www.w3.org/TR/2001/REC-SVG-20010904/DTD/svg10.dtd">
<svg version="1.0" xmlns="http://www.w3.org/2000/svg"
 width="300.000000pt" height="150.000000pt" viewBox="0 0 300.000000 150.000000"
 preserveAspectRatio="xMidYMid meet">
<metadata>
Created by potrace 1.10, written by Peter Selinger 2001-2011
</metadata>
<g transform="translate(0.000000,150.000000) scale(0.100000,-0.100000)"
fill="#ffffff" stroke="none">
<path d="M1083 1455 c-3 -9 -3 -18 0 -22 10 -10 37 6 37 22 0 20 -29 20 -37 0z"/>
<path d="M1006 1220 c-172 -148 -393 -278 -536 -317 -95 -25 -267 -24 -342 3
-32 11 -63 17 -70 13 -17 -11 -11 -14 52 -33 257 -77 570 26 888 294 l72 61 0
-70 c0 -38 9 -122 20 -187 l20 -118 -34 -52 c-158 -238 -230 -568 -154 -707
33 -59 100 -93 157 -77 118 32 178 203 153 438 -7 59 -28 175 -47 257 l-35
150 48 47 c84 80 172 86 241 16 35 -36 57 -96 66 -186 6 -51 10 -62 24 -60 12
2 17 19 22 66 6 66 50 166 81 186 24 15 50 -12 82 -84 40 -89 39 -89 106 18
70 110 109 109 205 -8 151 -182 302 -225 476 -134 91 47 219 170 272 262 41
69 44 82 23 82 -8 0 -29 -26 -46 -59 -100 -188 -299 -327 -438 -306 -92 14
-163 63 -257 175 -71 86 -111 109 -160 90 -40 -15 -76 -46 -106 -92 l-27 -41
-17 39 c-48 116 -141 111 -196 -11 l-18 -39 -10 27 c-6 16 -11 32 -11 37 0 18
-66 83 -97 96 -71 30 -152 12 -228 -51 l-42 -34 -13 57 c-6 31 -14 114 -17
185 -5 108 -8 127 -22 126 -9 0 -47 -27 -85 -59z m127 -427 c3 -21 18 -92 33
-158 36 -157 40 -366 10 -459 -38 -116 -116 -158 -185 -101 -50 43 -64 98 -58
222 5 116 29 220 74 324 34 77 106 209 114 209 4 0 9 -17 12 -37z"/>
</g>
</svg>
